<?xml version="1.0" encoding="UTF-8"?>
<svg id="Modo_de_aislamiento" xmlns="http://www.w3.org/2000/svg" version="1.1" viewBox="0 0 241.92 225.32">
  <!-- Generator: Adobe Illustrator 29.8.3, SVG Export Plug-In . SVG Version: 2.1.1 Build 3)  -->
  <defs>
    <style>
      .st0 {
        fill: #fff;
      }
    </style>
  </defs>
  <path class="st0" d="M146.96,78.22c.58-.38,1.83-1.94,2.71-2.55,4.71-3.24,8.99-6.67,13.47-9.85,1.07-.76,7.57-5.67,8.06-5.66.28,0,1.08.86.27,1.27l-19.22,26.47c-1.93,3.82-3.75,7.77-4.6,12.01.55,1.89,11.35,5.26,13.55,5.77,10.74,2.49,22.68,3.33,33.6,5.23l-34.32,6.02c-4.51,1.18-9.07,2.59-12.83,5.47,1.25,6.18,4.35,11.73,7.85,16.89,4.29,6.31,11.41,13.62,14.86,20.15.38.72.72,1.36.58,2.21-11.04-5.99-22.6-18.83-34.52-22.57-4.77-1.5-4.85-1.39-6.82,2.8-3.47,7.37-4.13,15.11-5.41,23.03l-3.48,20.08c-1.67-8.93-2.55-18.06-4.23-26.99-.63-3.35-3.73-18.12-6.43-19.45-3-1.48-11.48,3.83-14.27,5.55-.85.52-2.13.07-2.8,1.72l-23.53,16.84,17.01-24.37c2.68-.65,1.34-1.06,1.78-2.66.11-.39.74-.4.94-.79,1.14-2.24,3.93-7.49,4.5-9.6.96-3.51-.99-4.06-3.6-5.29-3.14-1.49-6.57-2.31-9.88-3.31l-33.09-5.73,33.61-5.22c4.63-1.64,9.53-2.77,13.55-5.75-1.4-4.64-3.18-8.88-5.64-13.05-4.86-8.24-12.34-15.84-17.3-23.85-.53-.85-.63-1.46-.87-2.38.9-.61,8.38,5.88,9.68,6.81,5.24,3.77,11.63,8.66,17.07,11.86,3.88,2.28,8.32,4.39,12.77,5.13,7.42-12.51,6.8-27.78,9.88-41.66.17-.78-.03-2.7,1.09-2.45.94.85.89,2.28,1.12,3.45,2.62,13.44,2.39,28.72,9.8,40.47,1.11.57,6.98-2.07,8.46-2.73,1.72-.77,5.26-2.46,6.63-3.33h0Z"/>
</svg>