<?xml version="1.0" encoding="UTF-8"?>
<svg id="Capa_1" xmlns="http://www.w3.org/2000/svg" version="1.1" viewBox="0 0 173 161">
  <!-- Generator: Adobe Illustrator 29.8.3, SVG Export Plug-In . SVG Version: 2.1.1 Build 3)  -->
  <path d="M67.75,83.56c5.66.8,9.27,6.69,8.63,12.12-1.52,12.68-19.98,12.26-21.38.64-.38-3.16.74-4.48-1.5-7.5-3.04-4.1-10.01-4.41-13.96-1.47-4.95,3.68-1.07,11.82-3.27,17.23-2.07,5.1-16.85.7-18.81,3.19-.4.5-.4.94-.47,1.53-.54,4.1-.48,16.85.01,21.03.59,5.01,11.04,6.48,15.24,6.76,6.81.46,14.19.37,21,.5,17.29.34,38.29-1.69,54.96.04,3.13.32,6.68,1.3,8.07,4.43s-.31,4.97,3.63,6.87c7.08,3.41,22.75,1.76,29.95-1.27,11.05-4.66,10.03-12.08-1.08-15.6-9.3-2.94-18.91-2.64-28.5-3-24.74-.93-49.64-.3-74.46-.54-11.18-3.15-8.16-17.12,3.44-16.48,28.72,1.11,58.44-1.4,87.04,0,7.25.35,21.92,1.75,24.61,9.89,1.05,3.17.98,14.68.56,18.33-1.6,13.79-24.6,14.92-35.22,14.33-6.65-.37-13.29-2.18-19.96-2.54-27.67-1.51-56.7,1.18-84.51.01-6.33-.57-7.37-3.29-7.78-9.22-1.54-22.27.69-47.01.65-69.4,1.92-8.8,9.65-15.42,18.88-14.37-.32-10.81.95-21.93-1.51-32.5l-2.5,5.24c-5.14,6.44-17.04,4.19-18-4.49-.47-4.26.57-8.71,4.65-10.85,9.7-5.09,19.77,5.74,19.86,15.1,3.98-5.37,7.6-10.86,14.8-11.94l60.81.07c6.8.98,7.09,5.78,7.4,11.6.14,2.57.42,6.7-.77,8.77h-9c-1.29,0-8.75,3.71-8.75,5.25v13.75h41v-18c-4.06.1-11.15.19-14.01-3.24-.43-.52-1.99-3.6-1.99-4.01v-12.75h11.25c.32,0,2.58,1.55,3.02,1.98,1.68,1.61,1.75,3.52,2.69,4.71,1.46,1.85,2.01-1.73,2.45-2.53,1.18-2.15,3.73-4.66,6.34-4.66h9.25c-.16,5.2,2.38,15.1-2.53,18.72-.82.61-3.87,1.78-4.72,1.78h-8.75v18c.97-.19,3.27.33,3.92-.08.19-.12.42-1.38.84-1.9,4.38-5.35,12.72-2.17,11.12,5.61-1.26,6.14-12.06,5.6-11.9-1.11l-3.98-.02v19.75c0,.87,5.18,4.25,6.25,4.25h9.5l.67.83c-.27,5.87,2.14,15.99-5.51,17.83-3.72.89-19.45.82-23.66.34-9.28-1.04-5.48-12.18-6.25-18.5h7.75c1.39,0,8.25-3.57,8.25-5.25v-19.25h-41v23h7.75c1.11,0,5.6,1.65,6.51,2.49,1.05.97,2.24,4.45,2.24,5.76v11.75h-11.25c-1.17,0-3.72-2.55-4.47-3.53s-1.21-3.47-2.53-3.47c-.72,1.76-3.38,7.01-5.51,7.01h-11.25v-14.25c0-.39,1.39-2.76,1.8-3.2,2.85-3.05,9.75-2,13.7-2.55v-23h-28v12c-3.61.64-2.63-1.61-3.9-3.85-1.4-2.48-6.99-8.15-9.85-8.15h-19.25v22h31.25ZM97.5,59.06v-13.75c0-2.6-8.52-5.04-10.76-5.24-10.18-.91-29.81-.9-40.01-.03-2.53.22-10.23,2.83-10.23,5.77v13.25h18.25c.29,0,3.29-1.35,3.82-1.68,3.98-2.4,6.79-7.61,8.91-11.59l.76-.25,1.26.77v12.75h28ZM33.5,61.56c-5.55-.77-10.82,1.75-13.92,6.33-.58.86-2.58,5.13-2.58,5.92v20.75c4.24-5.71,9.03-10.24,16.5-11v-22Z"/>
  <path d="M27.39,114.17c8.85-.7,9.45,13.6-.66,12.41-6.47-.77-7.11-11.79.66-12.41Z"/>
</svg>